<svg xmlns="http://www.w3.org/2000/svg" xmlns:xlink="http://www.w3.org/1999/xlink" viewBox="146 421 821 237"><defs><style>.cls-9{fill-rule:evenodd}.cls-11,.cls-9{fill:#182055}</style><clipPath id="clippath"><text transform="translate(458 610)" font-family="CeraPro-Bold,'Cera Pro'" font-size="112" font-weight="700" fill="none"><tspan x="0" y="0">inlandeed</tspan></text></clipPath><linearGradient id="linear-gradient" x1="444" y1="570" x2="548" y2="570" gradientUnits="userSpaceOnUse"><stop offset="0" stop-color="#d2cece"/><stop offset="1" stop-color="#8a8b8a"/></linearGradient><linearGradient id="linear-gradient-2" x1="558" y1="570" x2="967" y2="570" gradientUnits="userSpaceOnUse"><stop offset="0" stop-color="#f3dd82"/><stop offset="0" stop-color="#f2d774"/><stop offset="0" stop-color="#efd16a"/><stop offset="1" stop-color="#e8c14c"/><stop offset="1" stop-color="#e3b536"/><stop offset="1" stop-color="#e1ae29"/><stop offset="1" stop-color="#e0ac25"/></linearGradient><radialGradient id="radial-gradient" cx="209" cy="553" fx="209" fy="553" r="55" gradientTransform="matrix(1 0 0 1.39 0 -216)" gradientUnits="userSpaceOnUse"><stop offset="0" stop-color="#f3dc81"/><stop offset="1" stop-color="#f1d775"/><stop offset="1" stop-color="#efd36e"/><stop offset="1" stop-color="#ebc95a"/><stop offset="1" stop-color="#e4b83b"/><stop offset="1" stop-color="#e0ac25"/></radialGradient><radialGradient id="radial-gradient-2" cx="96" cy="551" fx="96" fy="551" r="55" gradientTransform="matrix(.72 0 0 1 140 0)" xlink:href="#radial-gradient"/><linearGradient id="linear-gradient-3" x1="266" y1="519" x2="289" y2="519" gradientUnits="userSpaceOnUse"><stop offset="0" stop-color="#f3dc81"/><stop offset="1" stop-color="#f1d775"/><stop offset="1" stop-color="#efd36e"/><stop offset="1" stop-color="#ebc95a"/><stop offset="1" stop-color="#e4b83b"/><stop offset="1" stop-color="#e0ac25"/></linearGradient><linearGradient id="linear-gradient-4" x1="274" y1="547" x2="317" y2="547" gradientTransform="translate(-95 -1) scale(1.18 1)" xlink:href="#linear-gradient-3"/><linearGradient id="linear-gradient-5" x1="289" y1="491" x2="354" y2="491" xlink:href="#linear-gradient-3"/><linearGradient id="linear-gradient-6" x1="262" y1="575" x2="405" y2="575" xlink:href="#linear-gradient-3"/><linearGradient id="linear-gradient-7" x1="362" y1="536" x2="373" y2="536" xlink:href="#linear-gradient-3"/><linearGradient id="linear-gradient-8" x1="162" y1="579" x2="220" y2="579" xlink:href="#linear-gradient-3"/><linearGradient id="linear-gradient-9" x1="162" y1="581" x2="220" y2="581" xlink:href="#linear-gradient-3"/><radialGradient id="radial-gradient-3" cx="482" cy="541" fx="482" fy="541" r="56" gradientTransform="matrix(.91 0 0 .86 -37 79)" xlink:href="#radial-gradient"/><radialGradient id="radial-gradient-4" cx="464" cy="541" fx="464" fy="541" r="52" gradientTransform="matrix(.91 0 0 .86 -37 79)" xlink:href="#radial-gradient"/><radialGradient id="radial-gradient-5" cx="303" cy="646" fx="303" fy="646" r="100" gradientTransform="matrix(1.06995 .01027 -.0142 1.47993 -19 -329)" xlink:href="#radial-gradient"/></defs><g style="isolation:isolate"><g clip-path="url(#clippath)" id="bACKGORUND"><path fill="url(#linear-gradient)" d="M444 520h104v100H444z"/><path fill="url(#linear-gradient-2)" d="M558 520h409v100H558z"/></g><g id="Layer_3" data-name="Layer 3"><path stroke="url(#radial-gradient)" stroke-width="0" stroke-miterlimit="10" fill="#182055" fill-rule="evenodd" d="M192 507l34-29v133l-25 13-9 5-1-37 1-85z"/><path class="cls-9" d="M266 442v54l12 5v45l11-5V422l-23 20"/><g fill-rule="evenodd"><path stroke="url(#radial-gradient-2)" fill="none" stroke-miterlimit="10" d="M191 624V507l35-29v138"/><path fill="none" stroke-miterlimit="10" stroke="url(#linear-gradient-3)" d="M267 488v-46l22-20v194h-21l-1-128z"/><path fill="url(#linear-gradient-4)" d="M227 476l51 25v116l-52-1 1-140z"/><path fill="url(#linear-gradient-5)" d="M289 421l62 14 3 125h-65V422"/></g><path class="cls-9" d="M377 544l-45-18-54 19v9l99-2v-8z"/><path fill="url(#linear-gradient-6)" fill-rule="evenodd" d="M378 559v58H278v-57h-16l69-26 74 27-27-1"/><path fill="url(#linear-gradient-7)" fill-rule="evenodd" d="M362 541v-12h11v15l-11-3z"/><path class="cls-11" d="M300 567h25v16h-25zM330 567h25v16h-25zM301 589h25v16h-25zM330 589h25v16h-25z"/><path stroke="#182055" stroke-width="3" stroke-miterlimit="10" fill="#182055" d="M362 532h11"/><g><path d="M217 578l-1-2c1-4 0-9-3-12-2-2-4-2-6-1 0-2-1-3-2-3h-2c0-4-2-7-5-9-3-1-6 0-8 3-1-2-3-3-4-2l-4 4c-2-1-4 0-6 2s-3 6-3 10h-3l-1 5c-2 0-4 2-5 4-1 3-2 6-1 10-2 4-1 12 3 15 2 2 6 1 8-1l3 3c2 2 3 1 4-1 1 3 4 4 5 4l4-3 6 2 5-4 2 2 1-3c2 2 4 2 6 1l3-4h1c3-1 5-6 6-10 0-4-1-8-3-10z" fill="url(#linear-gradient-8)"/><path d="M220 588v-1c-2 3-5 1-5 1s-1 6-6 6c-6 0-7-10-7-10s-1 6-6 3c-4-2-4-10-4-10s-1 4-5 4c-3 1-4-7-4-7s-6 2-7-6c-1-5 2-10 3-12l-3 2c-2 2-3 6-3 10h-3l-1 5c-2 0-4 2-5 4-1 3-2 6-1 10-2 4-1 12 3 15 2 2 6 1 8-1l3 3c2 2 3 1 4-1l5 4 4-3 6 2 5-4 2 2 1-3c2 2 4 2 6 1l3-4h1c3-1 5-6 6-10z" fill="url(#linear-gradient-9)"/><g><path class="cls-11" d="M184 628h15c-3-3-5-9-6-15 0-5-1-13 2-18 2-2 4-2 6-2h5c3-1 6-4 7-9h-1c-1 7-6 8-10 7l1-1 3-6-3 4c-1 2-3 2-5 3l-4 2-1 1v-8c1-3 3-5 5-5 2-1 4-2 5-6-1 3-4 3-6 4v-1l2-8c-1 4-2 7-4 9l-4 5-1 8v2l-4-8c-2-4-1-7 1-11l1-8c0 4-2 7-4 10v7c-2-4-4-8-4-12 0 7 2 12 5 17l2 3v1h-1l-2-2-1-1c-4-2-9 3-12-4v1c0 3 3 4 5 4h2l-4 3c-1 2-2 3-4 3 2 0 4 0 5-2 2-1 4-4 7-3l3 2 1 3c2 6 2 13 2 18-1 5-2 10-4 13z"/><path class="cls-11" d="M188 615c0-5 0-12-2-17l-1-4-3-2c-3-1-5 2-7 3-1 2-3 2-5 2l4-2 4-4h-2c-2 0-5-1-5-4v-1l2 4h6c2-1 3 0 5 1l3 4v-2l-1-1-1-3a37 37 0 0 1-5-17v4l5 11-1-3v-7c2-3 4-6 4-10l-1 7-3 8 3 9c2 3 3 8 3 11v22l1 4h-7c2-3 3-8 4-13zm3-23l1-8 5-7 2-7c-1 4-2 7-4 9l-4 5-1 8v3l1 2v-5zm21-8c-1 7-6 8-10 7l-1 1h6l5-5 1-3h-1zm-15-5l-1 1 5-2 2-3c-1 3-4 3-6 4zm8 7l1-2-3 4c-1 2-3 2-5 3l-4 2-1 1v2c1-4 7-5 8-5l4-5z"/></g></g><g><path d="M430 549v-1a28 28 0 0 0-5-29 24 24 0 0 0-6-29l-6-4c-4-2-9-3-14-2l-6 1c-5 1-8 4-11 7a24 24 0 0 0-5 26v1a29 29 0 0 0-6 29 35 35 0 0 0-6 24c0 5 2 11 6 16 5 7 13 12 22 14a37 37 0 0 0 34-12c4-4 8-11 9-16v-9c0-6-2-11-6-16z" fill="url(#radial-gradient-3)"/><path d="M378 573c0-6 1-11 4-15l-2-12c0-10 4-18 11-24l-2-12c0-11 6-21 16-26h-6l-6 1c-5 1-8 4-11 7a24 24 0 0 0-5 26v1a29 29 0 0 0-6 30 35 35 0 0 0-6 23c0 5 2 11 6 16a36 36 0 0 0 31 14c-14-3-24-15-24-29z" style="mix-blend-mode:multiply" fill="url(#radial-gradient-4)"/><path class="cls-11" d="M400 556h4l3 10 2-1 3 2 1 17-4-3 6 33h-25l3-21-6-9 2-6 7-1 1-6-5-4 6-1 2-10z"/></g><path d="M146 658s53-61 131-50c0 0 37 12 170-12l-43 36-116-3c-8 1-87 7-142 29z" fill="url(#radial-gradient-5)" fill-rule="evenodd"/></g></g></svg>